<?xml version="1.0" encoding="UTF-8"?><svg id="Layer_1" xmlns="http://www.w3.org/2000/svg" viewBox="0 0 1500 1500"><defs><style>.cls-1{fill:#fff;}.cls-2{fill:#f15b22;}.cls-3{fill:#170e08;}</style></defs><path class="cls-2" d="M1219.14,775.33c-.38,31.56-1.29,63.12-4.07,94.59-2.25,25.92-4.45,51.89-7.65,77.71-9.47,75.27-25.25,149.15-51.41,220.55-16.93,46.19-38.07,90.29-65.52,131.27-29.46,43.95-64.94,82.16-108.7,112.28-41.65,28.74-87.51,47.73-137.01,57.96-40.46,8.32-81.34,10.66-122.57,8.32-43.9-2.49-86.51-11-127.49-27.16-54.42-21.52-100.76-54.66-140.07-97.84-30.03-33-54.32-69.87-74.65-109.41-25.97-50.55-44.71-103.72-58.96-158.58-9.9-37.97-17.45-76.42-23.24-115.25-4.93-32.71-8.56-65.61-11.09-98.61-2.96-38.21-4.54-76.47-4.64-114.82-.05-7.03,0-14.06,0-21.14h-.77c.72-32.04,.91-64.03,2.2-96.07,.96-24.29,2.73-48.63,5.12-72.88,2.49-25.3,5.55-50.55,9.42-75.65,11.43-73.84,29.94-145.76,60.54-214.19,18.55-41.46,41.32-80.34,70.2-115.54,45.76-55.86,102.29-96.41,170.82-119.79,29.7-10.14,60.21-16.59,91.39-20.09,28.07-3.11,56.24-3.87,84.4-2.49,51.89,2.53,102.1,12.67,149.87,33.38,52.94,22.91,97.84,56.76,135.62,100.28,32.23,37.06,57.34,78.62,77.71,123.19,21.9,47.77,37.68,97.65,49.59,148.77,7.7,33,13.63,66.28,18.22,99.85,3.83,28.07,6.65,56.29,8.7,84.55,2.2,30.75,3.54,61.5,3.87,92.3,.24,24.82,.48,49.69,.14,74.51Z"/><path class="cls-1" d="M945.32,1100.89c-4.02,12.19-9.76,23.43-18.99,32.66-10.14,10.19-22.62,15.4-36.77,17.02-10.38,1.15-20.42-.91-30.41-3.25-12.67-3.01-25.35-5.98-38.35-7.22-11.19-1.05-22.33-.38-33.47,.72-22.05,2.25-43.23,8.46-64.37,14.68-14.01,4.16-28.26,7.03-42.94,6.65-15.3-.38-30.22-2.73-44.28-8.99-19.51-8.7-33.28-23.15-42.37-42.23-6.98-14.63-11.14-30.13-13.92-46-3.2-18.32-4.64-36.77-5.55-55.33-1.24-24.77-2.3-49.54-3.4-74.36,.72-34.34,2.63-68.58,5.88-102.77,4.16-43.9,11.09-87.27,19.85-130.36,2.01-8.51,4.16-17.31,8.03-30.18,39.12-104.92,83.83-208.36,122.04-311.79,1.39-1.67,2.77-3.3,4.16-4.97,56,101.57,112.05,206.64,163.02,312.37,1.15,17.5,2.77,34.96,4.88,52.41,3.59,29.65,7.51,59.25,14.06,88.42,5.17,22.81,11.53,45.38,17.69,67.95,6.17,22.62,12.82,45.1,16.59,68.24,2.25,13.44,3.92,26.97,5.07,40.55,1.29,15.11,2.25,30.27,2.39,45.43,.29,23.77-1.29,47.49-8.85,70.34Z"/><path class="cls-3" d="M729.31,0c14.1,0,28.2,0,42.31,0,6.7,.56,13.4,1.21,20.12,1.65,25.72,1.72,51.15,5.4,76.3,11.08,84.53,19.07,156.87,59.83,217.12,122.07,40.88,42.23,72.83,90.65,98.88,143.12,23.02,46.37,40.76,94.76,54.83,144.53,17.95,63.52,29.79,128.21,36.89,193.8,3.28,30.32,6.07,60.67,6.51,91.19,.02,1.16,.47,2.32,.71,3.48v87.37c-.25,1.62-.65,3.24-.74,4.87-.95,17.43-1.62,34.89-2.82,52.31-2.01,29.35-5.62,58.53-10.05,87.61-6.99,45.92-16.71,91.25-29.69,135.85-16.06,55.16-36.82,108.42-64.26,158.98-27.37,50.41-60.46,96.58-101.83,136.53-80.09,77.34-176.34,117.58-286.96,124.76-1.64,.11-3.25,.53-4.88,.81h-60.7c-5.46-.55-10.91-1.21-16.38-1.65-25.39-2.03-50.45-6.08-75.18-12.17-82.65-20.36-153.12-61.78-212.31-122.73-42.66-43.94-76.08-94.31-103.17-149.01-30.74-62.07-52.23-127.37-67.52-194.8-9.12-40.2-16.15-80.77-20.41-121.77-2.56-24.67-4.37-49.42-6.31-74.15-.87-11.14-1.21-22.33-1.85-33.49-.08-1.32-.56-2.61-.85-3.92,0-20.85,0-41.69,0-62.54,.53-4.99,1.25-9.97,1.57-14.98,1.33-20.17,2.37-40.37,3.83-60.53,2.01-27.81,5.44-55.48,9.53-83.05,6.28-42.28,14.61-84.16,25.53-125.5,15.53-58.79,35.82-115.81,63.58-170.03,27.07-52.86,60.32-101.29,102.78-143.09,39.54-38.93,84.73-69.41,136-90.75C611.35,14.43,665.16,3.79,720.66,.87,723.55,.72,726.42,.3,729.31,0ZM281.34,735.21c.24,0,.48,0,.72,.01,0,7.05-.02,14.1,0,21.15,.13,38.33,1.68,76.59,4.64,114.81,2.56,33,6.2,65.87,11.08,98.62,5.79,38.81,13.37,77.25,23.25,115.22,14.28,54.85,33.03,108.06,58.97,158.57,20.33,39.57,44.64,76.45,74.65,109.42,39.31,43.17,85.62,76.36,140.06,97.86,40.97,16.19,83.6,24.69,127.51,27.18,41.2,2.34,82.08-.02,122.54-8.36,49.52-10.21,95.35-29.18,137.04-57.93,43.75-30.16,79.23-68.34,108.7-112.31,27.45-40.95,48.56-85.08,65.49-131.27,26.16-71.4,41.97-145.25,51.41-220.53,3.24-25.83,5.42-51.8,7.68-77.74,2.75-31.46,3.68-63.03,4.07-94.59,.31-24.82,.09-49.65-.16-74.48-.32-30.8-1.65-61.57-3.87-92.3-2.05-28.28-4.89-56.47-8.71-84.56-4.57-33.55-10.52-66.85-18.21-99.84-11.93-51.13-27.68-100.99-49.56-148.8-20.39-44.55-45.52-86.11-77.74-123.19-37.77-43.47-82.67-77.33-135.61-100.27-47.81-20.72-98.02-30.81-149.86-33.37-28.2-1.39-56.36-.63-84.45,2.51-31.16,3.47-61.65,9.93-91.34,20.07-68.54,23.4-125.06,63.95-170.85,119.78-28.86,35.19-51.64,74.09-70.19,115.54-30.62,68.44-49.11,140.36-60.53,214.2-3.88,25.11-6.92,50.38-9.42,75.67-2.39,24.23-4.16,48.56-5.13,72.89-1.28,31.99-1.5,64.03-2.18,96.05Z"/><path class="cls-3" d="M1106.25,895.17c-.1,17.75-.59,33.66-4.46,49.26-1.44,5.82-3.36,11.47-6.57,16.59-6.98,11.12-16.67,11.73-24.91,1.5-5.51-6.84-8.63-14.87-10.39-23.31-9.91-47.53-27.6-92.36-47.45-136.4-10.32-22.89-21.65-45.32-32.56-67.94-.93-1.92-1.91-3.91-3.29-5.51-1.78-2.05-3.74-4.16-6.04-5.51-6.61-3.87-12.97-.29-13.1,7.34-.05,2.85,.51,5.82,1.37,8.55,4.1,12.99,8.6,25.86,12.58,38.89,11.64,38.1,21.57,76.64,28.78,115.84,4.6,25.02,8.01,50.2,9.79,75.6,1.52,21.74,1.88,43.47,.64,65.23-1.69,29.65-6.27,58.76-16.37,86.83-3.75,10.43-9.01,20.1-14.12,29.87-6.39,12.21-12.66,24.48-18.6,36.91-3.71,7.75-6.19,15.98-7.37,24.55-2.03,14.69,1.87,27.07,14.21,36,5.08,3.68,10.55,6.81,15.72,10.37,7.19,4.94,14.43,9.82,21.31,15.17,2.96,2.29,5.45,5.43,7.48,8.61,3.3,5.16,1.24,9.89-4.77,10.96-3.24,.58-6.76,.45-10.03-.11-10.02-1.71-20.11-2.14-30.22-2.13-8.28,0-15.28,3.19-20.5,9.64-3.08,3.8-5.7,7.97-8.52,11.97-1.94,2.75-3.65,5.71-5.88,8.2-6.49,7.27-16.09,7.83-23.27,1.27-2.57-2.35-4.67-5.26-6.71-8.1-2.23-3.1-4.12-6.45-6.22-9.66-4.96-7.57-12.19-11.48-20.98-12.54-4.24-.51-8.56-.74-12.83-.64-8.73,.2-17.45,.72-26.18,1.08-1.52,.06-3.09,.2-4.57-.04-3.19-.53-5.01-2.91-4.01-5.97,.88-2.67,2.21-5.57,4.22-7.43,6.83-6.36,13.8-12.61,21.17-18.32,7.62-5.91,15.78-11.11,23.67-16.67,5.8-4.09,6.81-7.06,3.87-13.67-5.26-11.85-14.14-20.3-25.86-25.61-10.73-4.87-22.22-6.84-33.92-7.46-23.89-1.27-47.46,1.48-70.68,6.85-17.14,3.97-34.1,8.73-51.08,13.36-4.11,1.12-8.05,2.97-11.92,4.78-2.47,1.16-4.85,2.67-6.99,4.36-4.43,3.5-4.9,6.27-1.94,11.12,6,9.84,10.99,20.18,14.9,31,1.33,3.69,2.31,7.68,2.53,11.58,.4,7.07-4.09,12.03-11.19,12.58-4.1,.32-8.26-.06-12.38-.28-8.1-.44-16.19-1.11-24.3-1.48-13.61-.63-25.66,3.49-36.1,12.26-4.81,4.04-9.47,8.27-14.4,12.16-3.71,2.93-7.62,5.67-11.68,8.08-3.45,2.05-7.39,2.98-11.48,2.64-4.87-.4-7.94-3.01-9-7.76-.4-1.78-.51-3.64-.66-5.47-.17-2.14-.14-4.29-.35-6.43-.86-8.73-5.07-13.17-13.74-14.75-8.13-1.48-16.19,0-24.28,.41-3.02,.15-6.16,.14-9.07-.53-4-.93-4.95-3.99-2.55-7.36,1.04-1.47,2.45-2.76,3.9-3.84,1.71-1.27,3.6-2.33,5.51-3.31,20.33-10.36,40.66-20.71,61.03-31,4.1-2.07,8.36-3.8,12.49-5.82,2.47-1.2,4.97-2.44,7.19-4.04,5.29-3.81,6.38-8.38,2.93-13.97-1.89-3.07-4.52-5.77-7.16-8.27-2.66-2.51-5.7-4.65-8.66-6.82-22.55-16.55-38.49-38.36-50.53-63.3-11.53-23.9-18.71-49.18-23.87-75.09-5.61-28.18-7.88-56.7-8.62-85.39-.66-25.61-.08-51.18,1.45-76.73,2-33.52,6.26-66.78,12.24-99.83,1.88-10.4,3.79-20.79,5.41-31.23,.46-2.95,.37-6.16-.27-9.07-1.19-5.4-5.33-6.95-10.16-4.18-3.75,2.15-6.11,5.51-7.65,9.47-3.16,8.14-6.36,16.26-9.39,24.44-10.91,29.47-20.4,59.37-26.63,90.22-4.56,22.59-7.31,45.34-7.09,68.44,.05,5-.83,10.06-1.86,14.98-.57,2.76-1.99,5.5-3.59,7.87-3.78,5.61-9.63,6.99-15.74,4.02-3.95-1.92-6.99-4.94-9.66-8.34-4.2-5.35-7.19-11.38-9.61-17.7-4.52-11.82-7.15-24.09-8.17-36.65-4.29-52.49,2.98-103.6,18.91-153.61,12.95-40.64,31.5-78.71,53.15-115.35,4.88-8.25,11.63-18.5,20.28-30.76,73.49-91.5,147.64-179.77,221.79-268.04,84.74,84.74,180.07,151.83,264.77,235.24,9.61,12.17,17.95,23.46,22.99,32.04,10.07,17.17,19.7,34.6,28.63,52.43,19.54,39.03,35.2,79.5,44.95,122.14,5.4,23.63,9.12,47.52,10.72,71.72,.68,10.24,1.13,20.5,1.58,28.96Zm-535.77,40.09c1.12,24.79,2.15,49.58,3.4,74.36,.93,18.51,2.36,36.99,5.56,55.29,2.78,15.9,6.93,31.4,13.91,46.02,9.11,19.07,22.87,33.55,42.37,42.21,14.09,6.26,29.01,8.62,44.28,9.03,14.7,.39,28.94-2.52,42.96-6.65,21.16-6.23,42.31-12.44,64.38-14.69,11.14-1.13,22.26-1.8,33.48-.74,13.02,1.23,25.67,4.2,38.33,7.21,10.01,2.38,20.03,4.43,30.44,3.25,14.16-1.61,26.6-6.8,36.78-17,9.21-9.23,14.94-20.48,18.97-32.68,7.55-22.86,9.11-46.54,8.86-70.34-.16-15.15-1.12-30.32-2.41-45.42-1.16-13.56-2.84-27.12-5.05-40.55-3.82-23.14-10.42-45.64-16.59-68.24-6.17-22.59-12.55-45.15-17.69-67.98-6.56-29.14-10.5-58.77-14.09-88.42-2.11-17.43-3.7-34.89-4.87-52.39-51.42-106.59-107.91-212.52-164.41-314.91-38.84,105.93-84.74,211.85-124.79,319.31-3.9,12.89-6.06,21.66-8.04,30.16-8.76,43.09-15.67,86.49-19.85,130.36-3.26,34.19-5.16,68.43-5.9,102.8Zm160.06-581.88,0,0"/><circle class="cls-3" cx="730.53" cy="240.05" r="123.15"/></svg>